# Blender v2.82 (sub 7) OBJ File: 'settlement.blend'
# www.blender.org
o settlement
v 0.400000 3.000001 -3.000000
v 0.400000 3.000001 -2.500000
v 0.750000 2.650001 -3.000000
v 0.750000 2.650001 -2.500000
v -0.750000 2.650001 -2.500000
v -0.750000 2.650001 -3.000000
v -0.750000 0.000001 -2.500000
v -0.750000 0.000001 -3.000000
v 0.750000 0.000001 -3.000000
v 0.750000 0.000001 -2.500000
v -2.000000 3.000001 -2.500000
v -2.000000 3.000000 2.500000
v -0.399614 4.351285 -2.500000
v 0.000000 4.688698 2.500001
v 0.000000 4.688699 -2.499999
v 0.141956 4.568839 0.000001
v 1.750000 4.568839 0.000001
v 0.815656 4.000000 -0.999999
v 1.750000 4.000000 -0.999999
v 0.815656 4.000000 1.000001
v 1.750000 4.000000 1.000001
v 1.750000 3.211087 1.000000
v 1.750000 3.211087 -1.000000
v -0.399614 3.000001 -3.000000
v -0.399614 4.930001 -2.999999
v 0.401062 4.930001 -2.999999
v 0.401062 3.000001 -3.000000
v -0.400000 3.000001 -3.000000
v 0.401062 4.350062 -2.500000
v 2.000000 3.000001 -2.500000
v 2.000000 3.000000 2.500000
v 2.000000 0.000001 -0.623477
v 2.000000 0.000001 -2.500000
v 2.000000 1.360479 -0.623477
v 2.000000 1.503752 -0.598800
v 2.000000 1.637435 -0.541658
v 2.000000 1.754279 -0.455150
v 2.000000 1.847950 -0.343966
v 2.000000 1.913370 -0.214133
v 2.000000 1.946991 -0.072692
v 2.000000 1.946991 0.072691
v 2.000000 1.913370 0.214134
v 2.000000 1.847950 0.343966
v 2.000000 1.754279 0.455150
v 2.000000 1.637435 0.541658
v 2.000000 1.503752 0.598800
v 2.000000 1.360479 0.623477
v 2.000000 0.000000 2.500000
v 2.000000 0.000000 0.623477
v -2.000000 0.000000 2.500000
v -2.000000 0.000001 -2.500000
v -0.399614 3.000001 -2.500000
v -0.400000 3.000001 -2.500000
v 1.800000 0.000001 -0.623477
v 1.800000 0.000000 0.623477
v 0.401062 3.000001 -2.500000
v -0.399614 4.930001 -2.499999
v 0.401062 4.930001 -2.499999
v -0.098874 5.000001 -2.808064
v -0.083315 5.000001 -2.749999
v 0.084763 5.000001 -2.749999
v -0.098874 5.000001 -2.691934
v 0.100322 5.000001 -2.691934
v -0.141380 5.000001 -2.649428
v 0.142828 5.000001 -2.649428
v -0.329614 5.000001 -2.569999
v 0.331062 5.000001 -2.569999
v -0.199445 5.000001 -2.633869
v -0.257510 5.000001 -2.649428
v -0.300016 5.000001 -2.691934
v -0.315575 5.000001 -2.749999
v -0.329614 5.000001 -2.929999
v -0.300016 5.000001 -2.808064
v -0.257510 5.000001 -2.850570
v -0.199445 5.000001 -2.866129
v -0.141380 5.000001 -2.850570
v 0.142828 5.000001 -2.850570
v 0.100322 5.000001 -2.808064
v 0.301465 5.000001 -2.691934
v 0.317023 5.000001 -2.749999
v 0.331062 5.000001 -2.929999
v 0.301465 5.000001 -2.808064
v 0.258958 5.000001 -2.850570
v 0.200893 5.000001 -2.866129
v 0.258958 5.000001 -2.649428
v 0.200893 5.000001 -2.633869
v 0.301465 5.500001 -2.691934
v 0.317023 5.500001 -2.749999
v 0.301465 5.500001 -2.808064
v 0.258958 5.500001 -2.850570
v 0.200893 5.500001 -2.866129
v 0.142828 5.500001 -2.850570
v 0.100322 5.500001 -2.808064
v 0.084763 5.500001 -2.749999
v 0.100322 5.500001 -2.691934
v 0.142828 5.500001 -2.649428
v 0.200893 5.500001 -2.633869
v 0.258958 5.500001 -2.649428
v -0.098874 5.500001 -2.691934
v -0.083315 5.500001 -2.749999
v -0.098874 5.500001 -2.808064
v -0.141380 5.500001 -2.850570
v -0.199445 5.500001 -2.866129
v -0.257510 5.500001 -2.850570
v -0.300016 5.500001 -2.808064
v -0.315575 5.500001 -2.749999
v -0.300016 5.500001 -2.691934
v -0.257510 5.500001 -2.649428
v -0.199445 5.500001 -2.633869
v -0.141380 5.500001 -2.649428
v 1.800000 1.360479 -0.623477
v 1.800000 1.503752 -0.598800
v 1.800000 1.637435 -0.541658
v 1.800000 1.754279 -0.455150
v 1.800000 1.847950 -0.343966
v 1.800000 1.913370 -0.214133
v 1.800000 1.946991 -0.072692
v 1.800000 1.946991 0.072691
v 1.800000 1.913370 0.214134
v 1.800000 1.847950 0.343966
v 1.800000 1.754279 0.455150
v 1.800000 1.637435 0.541658
v 1.800000 1.503752 0.598800
v 1.800000 1.360479 0.623477
vt 0.952500 0.628618
vt -0.317500 0.628618
vt 0.952500 -0.628618
vt -0.317500 -0.628618
vt 1.270000 6.731000
vt 0.000000 6.731000
vt 1.270000 0.000000
vt 0.000000 0.000000
vt 1.270000 6.731000
vt 0.000000 6.731000
vt 1.270000 0.000000
vt 0.000000 0.000000
vt 0.000000 12.700000
vt 0.000000 0.000000
vt 5.320196 12.700000
vt 6.648642 0.000000
vt 6.648642 12.700000
vt 0.000000 4.084433
vt 0.000000 0.000000
vt 2.922189 2.373234
vt 2.922189 0.000000
vt 2.922189 4.084433
vt 0.000000 2.373234
vt 2.922189 0.000000
vt 0.000000 0.000000
vt 0.000000 2.071766
vt 2.003838 4.445000
vt 0.000000 4.445000
vt 0.536162 4.445000
vt 2.540000 2.071766
vt 2.540000 4.445000
vt -2.540000 -0.733838
vt 2.540000 -0.733838
vt -2.540000 1.270000
vt 2.540000 1.270000
vt 0.000000 2.714849
vt 2.920020 7.620000
vt 2.920020 12.522200
vt 0.889000 7.620000
vt 0.886302 12.522200
vt 0.886302 7.620000
vt 0.000000 6.731000
vt 0.000000 0.000000
vt 3.810000 0.000000
vt 2.921000 7.620000
vt 3.810000 6.731000
vt 2.711502 8.890000
vt 1.333260 12.700000
vt 0.471906 6.350000
vt 0.000000 12.700000
vt 0.000000 0.000000
vt 6.648642 12.700000
vt 5.817562 8.890000
vt 6.648642 0.000000
vt 5.817562 3.810000
vt 2.711502 3.810000
vt 7.933632 0.000000
vt 12.700000 0.000000
vt 7.933632 3.455617
vt 12.700000 7.620000
vt 7.870952 3.819531
vt 7.725812 4.159085
vt 7.506082 4.455869
vt 7.223674 4.693794
vt 6.893899 4.859959
vt 6.534636 4.945357
vt 0.000000 7.620000
vt 6.165364 4.945357
vt 5.806101 4.859959
vt 5.476326 4.693794
vt 5.193918 4.455869
vt 4.974188 4.159085
vt 4.829048 3.819531
vt 4.766368 3.455617
vt 0.000000 0.000000
vt 4.766368 0.000000
vt 0.000000 0.000000
vt 10.160000 0.000000
vt 0.000000 7.620000
vt 10.160000 7.620000
vt 5.080000 11.909293
vt 0.000000 0.000000
vt 12.700000 0.000000
vt 0.000000 7.620000
vt 12.700000 7.620000
vt 0.635000 -1.015020
vt -0.635000 -1.015020
vt 0.635000 -1.016000
vt -0.635000 -1.016000
vt 1.583632 5.080000
vt 1.583632 4.572000
vt 6.350000 5.080000
vt 6.350000 1.905000
vt 6.350000 -1.905000
vt 7.620000 -1.905000
vt -1.583632 4.572000
vt -6.350000 -5.080000
vt 6.350000 -5.080000
vt -1.583632 5.080000
vt -6.350000 5.080000
vt 7.620000 1.905000
vt 4.064000 7.620000
vt 4.061302 7.620000
vt 3.175000 6.731000
vt 4.061302 11.049156
vt 0.000000 7.620000
vt 0.000000 0.000000
vt 3.175000 0.000000
vt -0.317500 -0.628618
vt 0.952500 -0.628618
vt -0.317500 0.628618
vt 0.952500 0.628618
vt 1.270000 4.902200
vt 0.000000 4.902200
vt 1.270000 3.432262
vt 0.000000 0.000000
vt 1.270000 0.000000
vt 0.000000 4.902200
vt 0.000000 3.429156
vt 1.270000 4.902200
vt 1.270000 0.000000
vt 0.000000 0.000000
vt 2.033718 3.429156
vt 2.033718 4.902200
vt 1.015020 4.289293
vt 0.000000 4.902200
vt 0.000000 3.432262
vt -0.635000 1.014161
vt 0.635000 1.014161
vt -0.635000 1.016859
vt 0.635000 1.016859
vt -0.147485 -0.252978
vt 0.000000 -0.213460
vt 0.000000 0.213460
vt 0.147485 -0.252978
vt 0.147485 0.252978
vt 0.255451 -0.360945
vt 0.255451 0.360945
vt 0.457200 -0.839059
vt 0.457200 0.839059
vt 0.294970 -0.508430
vt 0.255451 -0.655914
vt 0.147485 -0.763881
vt 0.000000 -0.803399
vt -0.457200 -0.839059
vt -0.147485 -0.763881
vt -0.255451 -0.655914
vt -0.294970 -0.508430
vt -0.255451 -0.360945
vt -0.255451 0.360945
vt -0.147485 0.252978
vt 0.147485 0.763881
vt 0.000000 0.803399
vt -0.457200 0.839059
vt -0.147485 0.763881
vt -0.255451 0.655914
vt -0.294970 0.508430
vt 0.255451 0.655914
vt 0.294970 0.508430
vt 6.095020 7.620000
vt 6.096000 7.620000
vt 6.095020 11.052262
vt 10.160000 7.620000
vt 6.985000 6.731000
vt 10.160000 0.000000
vt 6.985000 0.000000
vt -1.270000 -0.154446
vt -0.000000 -0.154446
vt -1.270000 0.000000
vt -0.000000 0.000000
vt -1.270000 0.154446
vt -0.000000 0.154446
vt -1.270000 0.308892
vt -0.000000 0.308892
vt -1.270000 0.463337
vt -0.000000 0.463337
vt -1.270000 0.617783
vt -0.000000 0.617783
vt -1.270000 0.772229
vt -0.000000 0.772229
vt -1.270000 0.926675
vt -0.000000 0.926675
vt -1.270000 -0.926675
vt -0.000000 -0.926675
vt -1.270000 -0.772229
vt -0.000000 -0.772229
vt -1.270000 -0.617783
vt -0.000000 -0.617783
vt -1.270000 -0.463337
vt -0.000000 -0.463337
vt -1.270000 -0.308892
vt -0.000000 -0.308892
vt -1.270000 -0.154446
vt -0.000000 -0.154446
vt -1.270000 0.000000
vt -0.000000 0.000000
vt -1.270000 0.154446
vt -0.000000 0.154446
vt -1.270000 0.308892
vt -0.000000 0.308892
vt -1.270000 0.463337
vt -0.000000 0.463337
vt -1.270000 0.617783
vt -0.000000 0.617783
vt -1.270000 0.772229
vt -0.000000 0.772229
vt -1.270000 0.926675
vt -0.000000 0.926675
vt -1.270000 -0.926675
vt -0.000000 -0.926675
vt -1.270000 -0.772229
vt -0.000000 -0.772229
vt -1.270000 -0.617783
vt -0.000000 -0.617783
vt -1.270000 -0.463337
vt -0.000000 -0.463337
vt -1.270000 -0.308892
vt -0.000000 -0.308892
vt 0.000000 0.294970
vt -0.147485 0.255451
vt 0.147485 0.255451
vt 0.255451 0.147485
vt -0.255451 0.147485
vt 0.294970 0.000000
vt -0.294970 0.000000
vt 0.255451 -0.147485
vt -0.255451 -0.147485
vt 0.147485 -0.255451
vt -0.147485 -0.255451
vt 0.000000 -0.294970
vt 0.000000 0.294970
vt -0.147485 0.255451
vt 0.147485 0.255451
vt 0.255451 0.147485
vt -0.255451 0.147485
vt 0.294970 0.000000
vt -0.294970 0.000000
vt 0.255451 -0.147485
vt -0.255451 -0.147485
vt 0.147485 -0.255451
vt -0.147485 -0.255451
vt 0.000000 -0.294970
vt 1.790640 0.125724
vt 0.112521 0.125724
vt 1.968439 -0.125724
vt -0.065279 -0.125724
vt -0.317500 -0.125724
vt 0.952500 -0.125724
vt -0.139700 0.125724
vt 0.774700 0.125724
vt 0.774700 0.125724
vt -0.139700 0.125724
vt 0.952500 -0.125724
vt -0.317500 -0.125724
vt 1.347489 0.125724
vt -0.330630 0.125724
vt 1.525289 -0.125724
vt -0.508430 -0.125724
vt 0.000000 0.000000
vt 0.000000 -0.370112
vt 0.508000 0.000000
vt 0.508000 -0.370112
vt 0.000000 -0.740224
vt 0.508000 -0.740224
vt 0.000000 -1.110336
vt 0.508000 -1.110336
vt 0.000000 -1.480448
vt 0.508000 -1.480448
vt 0.000000 -1.850560
vt 0.508000 -1.850560
vt 0.000000 -2.220672
vt 0.508000 -2.220672
vt 0.000000 -2.590785
vt 0.508000 -2.590785
vt 0.000000 -2.960896
vt 0.508000 -2.960896
vt 0.000000 -3.331009
vt 0.508000 -3.331009
vt 0.000000 -3.701121
vt 0.508000 -3.701121
vt 0.000000 -4.071233
vt 0.508000 -4.071233
vt 0.000000 -4.441345
vt 0.508000 -4.441345
vt 0.000000 -4.811457
vt 0.508000 -4.811457
vt -3.455617 0.000000
vt -0.000000 0.000000
vt -3.455617 0.508000
vt -0.000000 0.508000
vt -3.455617 0.000000
vt -3.455617 0.508000
vt -0.000000 0.508000
vt -1.583632 -2.478071
vt 1.583632 -2.478071
vt -1.583632 0.977546
vt 1.583632 0.977546
vt -0.184636 2.467286
vt 0.184636 2.467286
vt 0.543899 2.381889
vt 0.873674 2.215723
vt 1.156082 1.977798
vt 1.375812 1.681014
vt 1.520952 1.341460
vt -0.543899 2.381889
vt -0.873674 2.215723
vt -1.156082 1.977798
vt -1.375812 1.681014
vt -1.520952 1.341460
vn 0.7071 0.7071 0.0000
vn -1.0000 0.0000 0.0000
vn 1.0000 0.0000 0.0000
vn -0.6451 0.7641 0.0000
vn 0.0000 0.8692 -0.4944
vn 0.0000 0.8692 0.4944
vn 0.0000 -0.0000 1.0000
vn 0.0000 0.0000 -1.0000
vn 0.6451 0.7641 -0.0000
vn 0.0000 1.0000 0.0000
vn 0.0000 -1.0000 -0.0000
vn -0.7071 0.7071 0.0000
vn 0.8660 0.0000 0.5000
vn 0.8660 0.0000 -0.5000
vn 0.5000 0.0000 -0.8660
vn -0.5000 0.0000 -0.8660
vn -0.8660 0.0000 -0.5000
vn -0.8660 0.0000 0.5000
vn -0.5000 0.0000 0.8660
vn 0.5000 0.0000 0.8660
vn 0.0000 0.7071 -0.7071
vn 0.0000 0.7071 0.7071
vn 0.0000 -0.0539 0.9985
vn 0.0000 -0.2833 0.9590
vn 0.0000 -0.4974 0.8675
vn 0.0000 -0.6846 0.7290
vn 0.0000 -0.8346 0.5509
vn 0.0000 -0.9394 0.3430
vn 0.0000 -0.9932 0.1164
vn 0.0000 -0.9932 -0.1164
vn 0.0000 -0.9394 -0.3430
vn 0.0000 -0.8346 -0.5509
vn 0.0000 -0.6846 -0.7290
vn 0.0000 -0.4974 -0.8675
vn 0.0000 -0.2833 -0.9590
vn 0.0000 -0.0539 -0.9985
s 1
f 1/1/1 2/2/1 3/3/1
f 3/3/1 2/2/1 4/4/1
f 5/5/2 6/6/2 7/7/2
f 7/7/2 6/6/2 8/8/2
f 3/9/3 4/10/3 9/11/3
f 9/11/3 4/10/3 10/12/3
f 11/13/4 12/14/4 13/15/4
f 13/15/4 12/14/4 14/16/4
f 13/15/4 14/16/4 15/17/4
f 16/18/5 17/19/5 18/20/5
f 18/20/5 17/19/5 19/21/5
f 16/22/6 20/23/6 17/24/6
f 17/24/6 20/23/6 21/25/6
f 20/26/7 22/27/7 21/28/7
f 23/29/8 18/30/8 19/31/8
f 22/32/3 23/33/3 21/34/3
f 21/34/3 23/33/3 19/35/3
f 21/34/3 19/35/3 17/36/3
f 24/37/8 25/38/8 1/39/8
f 1/39/8 25/38/8 26/40/8
f 1/39/8 26/40/8 27/41/8
f 3/42/8 9/43/8 1/39/8
f 1/39/8 9/43/8 24/37/8
f 9/43/8 8/44/8 24/37/8
f 24/37/8 8/44/8 28/45/8
f 28/45/8 8/44/8 6/46/8
f 18/47/9 29/48/9 16/49/9
f 16/49/9 29/48/9 15/50/9
f 16/49/9 15/50/9 14/51/9
f 29/48/9 18/47/9 30/52/9
f 30/52/9 18/47/9 23/53/9
f 30/52/9 23/53/9 31/54/9
f 31/54/9 23/53/9 22/55/9
f 31/54/9 22/55/9 20/56/9
f 31/54/9 20/56/9 14/51/9
f 14/51/9 20/56/9 16/49/9
f 32/57/3 33/58/3 34/59/3
f 34/59/3 33/58/3 30/60/3
f 34/59/3 30/60/3 35/61/3
f 35/61/3 30/60/3 36/62/3
f 36/62/3 30/60/3 37/63/3
f 37/63/3 30/60/3 38/64/3
f 38/64/3 30/60/3 39/65/3
f 39/65/3 30/60/3 40/66/3
f 40/66/3 30/60/3 31/67/3
f 40/66/3 31/67/3 41/68/3
f 41/68/3 31/67/3 42/69/3
f 42/69/3 31/67/3 43/70/3
f 43/70/3 31/67/3 44/71/3
f 44/71/3 31/67/3 45/72/3
f 45/72/3 31/67/3 46/73/3
f 46/73/3 31/67/3 47/74/3
f 47/74/3 31/67/3 48/75/3
f 47/74/3 48/75/3 49/76/3
f 50/77/7 48/78/7 12/79/7
f 12/79/7 48/78/7 31/80/7
f 12/79/7 31/80/7 14/81/7
f 51/82/2 50/83/2 11/84/2
f 11/84/2 50/83/2 12/85/2
f 52/86/10 24/87/10 53/88/10
f 53/88/10 24/87/10 28/89/10
f 32/90/11 54/91/11 33/92/11
f 33/92/11 54/91/11 10/93/11
f 10/93/11 54/91/11 7/94/11
f 10/93/11 7/94/11 8/95/11
f 54/91/11 55/96/11 7/94/11
f 7/94/11 55/96/11 50/97/11
f 7/94/11 50/97/11 51/98/11
f 49/99/11 48/100/11 55/96/11
f 55/96/11 48/100/11 50/97/11
f 8/95/11 9/101/11 10/93/11
f 2/102/8 56/103/8 4/104/8
f 4/104/8 56/103/8 29/105/8
f 4/104/8 29/105/8 30/106/8
f 30/106/8 33/107/8 4/104/8
f 4/104/8 33/107/8 10/108/8
f 6/109/12 5/110/12 28/111/12
f 28/111/12 5/110/12 53/112/12
f 57/113/2 25/114/2 13/115/2
f 13/115/2 25/114/2 24/116/2
f 13/115/2 24/116/2 52/117/2
f 58/118/3 29/119/3 26/120/3
f 26/120/3 29/119/3 27/121/3
f 27/121/3 29/119/3 56/122/3
f 29/123/7 58/124/7 15/125/7
f 15/125/7 58/124/7 57/126/7
f 15/125/7 57/126/7 13/127/7
f 2/128/11 1/129/11 56/130/11
f 56/130/11 1/129/11 27/131/11
f 59/132/10 60/133/10 61/134/10
f 61/134/10 60/133/10 62/135/10
f 61/134/10 62/135/10 63/136/10
f 63/136/10 62/135/10 64/137/10
f 63/136/10 64/137/10 65/138/10
f 65/138/10 64/137/10 66/139/10
f 65/138/10 66/139/10 67/140/10
f 64/137/10 68/141/10 66/139/10
f 66/139/10 68/141/10 69/142/10
f 66/139/10 69/142/10 70/143/10
f 70/143/10 71/144/10 66/139/10
f 66/139/10 71/144/10 72/145/10
f 72/145/10 71/144/10 73/146/10
f 72/145/10 73/146/10 74/147/10
f 74/147/10 75/148/10 72/145/10
f 72/145/10 75/148/10 76/149/10
f 72/145/10 76/149/10 77/150/10
f 77/150/10 76/149/10 78/151/10
f 78/151/10 76/149/10 59/132/10
f 78/151/10 59/132/10 61/134/10
f 79/152/10 67/140/10 80/153/10
f 80/153/10 67/140/10 81/154/10
f 80/153/10 81/154/10 82/155/10
f 82/155/10 81/154/10 83/156/10
f 83/156/10 81/154/10 84/157/10
f 84/157/10 81/154/10 77/150/10
f 77/150/10 81/154/10 72/145/10
f 79/152/10 85/158/10 67/140/10
f 67/140/10 85/158/10 86/159/10
f 67/140/10 86/159/10 65/138/10
f 52/160/8 53/161/8 13/162/8
f 13/162/8 53/161/8 11/163/8
f 11/163/8 53/161/8 5/164/8
f 11/163/8 5/164/8 51/165/8
f 51/165/8 5/164/8 7/166/8
f 87/167/13 79/168/13 88/169/3
f 88/169/3 79/168/13 80/170/3
f 88/169/3 80/170/3 89/171/14
f 89/171/14 80/170/3 82/172/14
f 89/171/14 82/172/14 90/173/15
f 90/173/15 82/172/14 83/174/15
f 90/173/15 83/174/15 91/175/8
f 91/175/8 83/174/15 84/176/8
f 91/175/8 84/176/8 92/177/16
f 92/177/16 84/176/8 77/178/16
f 92/177/16 77/178/16 93/179/17
f 93/179/17 77/178/16 78/180/17
f 93/179/17 78/180/17 94/181/2
f 94/181/2 78/180/17 61/182/2
f 94/183/2 61/184/2 95/185/18
f 95/185/18 61/184/2 63/186/18
f 95/185/18 63/186/18 96/187/19
f 96/187/19 63/186/18 65/188/19
f 96/187/19 65/188/19 97/189/7
f 97/189/7 65/188/19 86/190/7
f 97/189/7 86/190/7 98/191/20
f 98/191/20 86/190/7 85/192/20
f 98/191/20 85/192/20 87/167/13
f 87/167/13 85/192/20 79/168/13
f 99/193/13 62/194/13 100/195/3
f 100/195/3 62/194/13 60/196/3
f 100/195/3 60/196/3 101/197/14
f 101/197/14 60/196/3 59/198/14
f 101/197/14 59/198/14 102/199/15
f 102/199/15 59/198/14 76/200/15
f 102/199/15 76/200/15 103/201/8
f 103/201/8 76/200/15 75/202/8
f 103/201/8 75/202/8 104/203/16
f 104/203/16 75/202/8 74/204/16
f 104/203/16 74/204/16 105/205/17
f 105/205/17 74/204/16 73/206/17
f 105/205/17 73/206/17 106/207/2
f 106/207/2 73/206/17 71/208/2
f 106/209/2 71/210/2 107/211/18
f 107/211/18 71/210/2 70/212/18
f 107/211/18 70/212/18 108/213/19
f 108/213/19 70/212/18 69/214/19
f 108/213/19 69/214/19 109/215/7
f 109/215/7 69/214/19 68/216/7
f 109/215/7 68/216/7 110/217/20
f 110/217/20 68/216/7 64/218/20
f 110/217/20 64/218/20 99/193/13
f 99/193/13 64/218/20 62/194/13
f 88/219/10 89/220/10 87/221/10
f 87/221/10 89/220/10 98/222/10
f 98/222/10 89/220/10 90/223/10
f 98/222/10 90/223/10 97/224/10
f 97/224/10 90/223/10 91/225/10
f 97/224/10 91/225/10 96/226/10
f 96/226/10 91/225/10 92/227/10
f 96/226/10 92/227/10 95/228/10
f 95/228/10 92/227/10 93/229/10
f 95/228/10 93/229/10 94/230/10
f 100/231/10 101/232/10 99/233/10
f 99/233/10 101/232/10 110/234/10
f 110/234/10 101/232/10 102/235/10
f 110/234/10 102/235/10 109/236/10
f 109/236/10 102/235/10 103/237/10
f 109/236/10 103/237/10 108/238/10
f 108/238/10 103/237/10 104/239/10
f 108/238/10 104/239/10 107/240/10
f 107/240/10 104/239/10 105/241/10
f 107/240/10 105/241/10 106/242/10
f 72/243/21 81/244/21 25/245/21
f 25/245/21 81/244/21 26/246/21
f 58/247/1 26/248/1 67/249/1
f 67/249/1 26/248/1 81/250/1
f 66/251/12 72/252/12 57/253/12
f 57/253/12 72/252/12 25/254/12
f 67/255/22 66/256/22 58/257/22
f 58/257/22 66/256/22 57/258/22
f 34/259/23 35/260/24 111/261/23
f 111/261/23 35/260/24 112/262/24
f 112/262/24 35/260/24 36/263/25
f 112/262/24 36/263/25 113/264/25
f 113/264/25 36/263/25 37/265/26
f 113/264/25 37/265/26 114/266/26
f 114/266/26 37/265/26 38/267/27
f 114/266/26 38/267/27 115/268/27
f 115/268/27 38/267/27 39/269/28
f 115/268/27 39/269/28 116/270/28
f 116/270/28 39/269/28 40/271/29
f 116/270/28 40/271/29 117/272/29
f 117/272/29 40/271/29 41/273/30
f 117/272/29 41/273/30 118/274/30
f 118/274/30 41/273/30 42/275/31
f 118/274/30 42/275/31 119/276/31
f 119/276/31 42/275/31 43/277/32
f 119/276/31 43/277/32 120/278/32
f 120/278/32 43/277/32 44/279/33
f 120/278/32 44/279/33 121/280/33
f 121/280/33 44/279/33 45/281/34
f 121/280/33 45/281/34 122/282/34
f 122/282/34 45/281/34 46/283/35
f 122/282/34 46/283/35 123/284/35
f 123/284/35 46/283/35 47/285/36
f 123/284/35 47/285/36 124/286/36
f 47/287/8 49/288/8 124/289/8
f 124/289/8 49/288/8 55/290/8
f 32/291/7 34/259/7 54/292/7
f 54/292/7 34/259/7 111/293/7
f 55/294/3 54/295/3 124/296/3
f 124/296/3 54/295/3 111/297/3
f 124/296/3 111/297/3 118/298/3
f 118/298/3 111/297/3 117/299/3
f 117/299/3 111/297/3 116/300/3
f 116/300/3 111/297/3 115/301/3
f 115/301/3 111/297/3 114/302/3
f 114/302/3 111/297/3 113/303/3
f 113/303/3 111/297/3 112/304/3
f 118/298/3 119/305/3 124/296/3
f 124/296/3 119/305/3 120/306/3
f 124/296/3 120/306/3 121/307/3
f 121/307/3 122/308/3 124/296/3
f 124/296/3 122/308/3 123/309/3
