# Blender v2.82 (sub 7) OBJ File: ''
# www.blender.org
o Table_Mesh.001
v -0.500000 -0.275295 0.944140
v -0.500000 -0.175295 0.944140
v 0.500000 -0.275295 0.944140
v 0.500000 -0.175295 0.944140
v 0.500000 -0.275295 0.844140
v 0.500000 -0.175295 0.844140
v -0.500000 -0.275295 0.844140
v -0.500000 -0.175295 0.844140
v -0.500000 -0.275295 -0.849088
v -0.500000 -0.175295 -0.849088
v 0.500000 -0.275295 -0.849088
v 0.500000 -0.175295 -0.849088
v 0.500000 -0.275295 -0.949088
v 0.500000 -0.175295 -0.949088
v -0.500000 -0.275295 -0.949088
v -0.500000 -0.175295 -0.949088
v -0.050000 -0.275295 0.900000
v -0.050000 -0.175295 0.900000
v 0.050000 -0.275295 0.900000
v 0.050000 -0.175295 0.900000
v 0.050000 -0.275295 -0.900000
v 0.050000 -0.175295 -0.900000
v -0.050000 -0.275295 -0.900000
v -0.050000 -0.175295 -0.900000
v -0.700000 -0.050120 1.100000
v -0.700000 -0.000120 1.100000
v 0.700000 -0.050120 1.100000
v 0.700000 -0.000120 1.100000
v 0.700000 -0.050119 -1.100000
v 0.700000 -0.000119 -1.100000
v -0.700000 -0.050119 -1.100000
v -0.700000 -0.000119 -1.100000
v -0.600000 -1.025295 0.950000
v -0.600000 -0.025295 0.950000
v -0.500000 -1.025295 0.950000
v -0.500000 -0.025295 0.950000
v -0.500000 -1.025295 0.850000
v -0.500000 -0.025295 0.850000
v -0.600000 -1.025295 0.850000
v -0.600000 -0.025295 0.850000
v 0.500000 -1.025295 0.950000
v 0.500000 -0.025295 0.950000
v 0.600000 -1.025295 0.950000
v 0.600000 -0.025295 0.950000
v 0.600000 -1.025295 0.850000
v 0.600000 -0.025295 0.850000
v 0.500000 -1.025295 0.850000
v 0.500000 -0.025295 0.850000
v -0.600000 -1.025295 -0.850000
v -0.600000 -0.025295 -0.850000
v -0.500000 -1.025295 -0.850000
v -0.500000 -0.025295 -0.850000
v -0.500000 -1.025295 -0.950000
v -0.500000 -0.025295 -0.950000
v -0.600000 -1.025295 -0.950000
v -0.600000 -0.025295 -0.950000
v 0.500000 -1.025295 -0.850000
v 0.500000 -0.025295 -0.850000
v 0.600000 -1.025295 -0.850000
v 0.600000 -0.025295 -0.850000
v 0.600000 -1.025295 -0.950000
v 0.600000 -0.025295 -0.950000
v 0.500000 -1.025295 -0.950000
v 0.500000 -0.025295 -0.950000
vt 0.466876 0.742618
vt 0.466875 0.242618
vt 0.516876 0.242618
vt 0.466875 0.517618
vt 0.466875 0.467618
vt 0.516876 0.467618
vt 0.466876 0.742618
vt 0.466875 0.242618
vt 0.516876 0.242618
vt 0.466875 0.517618
vt 0.466875 0.467618
vt 0.516876 0.467618
vt 0.466876 0.742618
vt 0.466875 0.242618
vt 0.516876 0.242618
vt 0.466876 0.742618
vt 0.466875 0.242618
vt 0.516876 0.242618
vt 0.516876 0.742618
vt 0.516876 0.517618
vt 0.516876 0.742618
vt 0.516876 0.517618
vt 0.516876 0.742618
vt 0.516876 0.742618
vt 0.467618 0.751230
vt 0.467618 0.251230
vt 0.517618 0.251230
vt 0.467618 0.526230
vt 0.467618 0.476230
vt 0.517618 0.476230
vt 0.467618 0.751230
vt 0.467618 0.251230
vt 0.517618 0.251230
vt 0.467618 0.526230
vt 0.467618 0.476230
vt 0.517618 0.476230
vt 0.467618 0.751230
vt 0.467618 0.251230
vt 0.517618 0.251230
vt 0.467618 0.751230
vt 0.467618 0.251230
vt 0.517618 0.251230
vt 0.517618 0.751230
vt 0.517618 0.526230
vt 0.517618 0.751230
vt 0.517618 0.526230
vt 0.517618 0.751230
vt 0.517618 0.751230
vt 0.525000 0.525000
vt 0.475000 0.525000
vt 0.475000 0.475000
vt 0.950000 0.525000
vt 0.050000 0.525000
vt 0.050000 0.475000
vt 0.525000 0.525000
vt 0.475000 0.525000
vt 0.475000 0.475000
vt 0.950000 0.525000
vt 0.050000 0.525000
vt 0.050000 0.475000
vt 0.525000 0.950000
vt 0.475000 0.950000
vt 0.475000 0.050000
vt 0.525000 0.950000
vt 0.475000 0.950000
vt 0.475000 0.050000
vt 0.525000 0.475000
vt 0.950000 0.475000
vt 0.525000 0.475000
vt 0.950000 0.475000
vt 0.525000 0.050000
vt 0.525000 0.050000
vt 0.850000 0.512500
vt 0.150000 0.512500
vt 0.150000 0.487500
vt 1.050000 0.512500
vt -0.050000 0.512500
vt -0.050000 0.487500
vt 0.850000 0.512500
vt 0.150000 0.512500
vt 0.150000 0.487500
vt 1.050000 0.512500
vt -0.050000 0.512500
vt -0.050000 0.487500
vt 0.850000 1.050000
vt 0.150000 1.050000
vt 0.150000 -0.050000
vt 0.850000 1.050000
vt 0.150000 1.050000
vt 0.150000 -0.050000
vt 0.850000 0.487500
vt 1.050000 0.487500
vt 0.850000 0.487500
vt 1.050000 0.487500
vt 0.850000 -0.050000
vt 0.850000 -0.050000
vt 0.875000 0.955281
vt 0.625000 0.955281
vt 0.625000 0.044719
vt 1.125000 0.955281
vt 0.875000 0.044719
vt 0.375000 0.955281
vt 0.125000 0.955281
vt 0.125000 0.044719
vt 0.375000 0.044719
vt 1.125000 0.044719
vt 0.875000 0.955281
vt 0.625000 0.955281
vt 0.625000 0.044719
vt 1.125000 0.955281
vt 0.875000 0.044719
vt 0.375000 0.955281
vt 0.125000 0.955281
vt 0.125000 0.044719
vt 0.375000 0.044719
vt 1.375000 0.955281
vt 1.125000 0.044719
vt 0.875000 0.955281
vt 0.625000 0.955281
vt 0.625000 0.044719
vt 1.125000 0.955281
vt 0.875000 0.044719
vt 0.375000 0.955281
vt 0.125000 0.955281
vt 0.125000 0.044719
vt 0.375000 0.044719
vt 1.125000 0.044719
vt 0.875000 0.955281
vt 0.625000 0.955281
vt 0.625000 0.044719
vt 1.125000 0.955281
vt 0.875000 0.044719
vt 0.375000 0.955281
vt 0.125000 0.955281
vt 0.125000 0.044719
vt 0.375000 0.044719
vt 1.375000 0.044719
vt 1.125000 0.044719
vn 0.0000 0.0000 1.0000
vn 1.0000 0.0000 0.0000
vn 0.0000 0.0000 -1.0000
vn -1.0000 0.0000 0.0000
vn 0.0000 1.0000 0.0000
vn 0.0000 -1.0000 0.0000
s 1
f 4/1/1 2/2/1 1/3/1
f 6/4/2 4/5/2 3/6/2
f 8/7/3 6/8/3 5/9/3
f 2/10/4 8/11/4 7/12/4
f 6/13/5 8/14/5 2/15/5
f 3/16/6 1/17/6 7/18/6
f 3/19/1 4/1/1 1/3/1
f 5/20/2 6/4/2 3/6/2
f 7/21/3 8/7/3 5/9/3
f 1/22/4 2/10/4 7/12/4
f 4/23/5 6/13/5 2/15/5
f 5/24/6 3/16/6 7/18/6
f 12/25/1 10/26/1 9/27/1
f 14/28/2 12/29/2 11/30/2
f 16/31/3 14/32/3 13/33/3
f 10/34/4 16/35/4 15/36/4
f 14/37/5 16/38/5 10/39/5
f 11/40/6 9/41/6 15/42/6
f 11/43/1 12/25/1 9/27/1
f 13/44/2 14/28/2 11/30/2
f 15/45/3 16/31/3 13/33/3
f 9/46/4 10/34/4 15/36/4
f 12/47/5 14/37/5 10/39/5
f 13/48/6 11/40/6 15/42/6
f 20/49/1 18/50/1 17/51/1
f 22/52/2 20/53/2 19/54/2
f 24/55/3 22/56/3 21/57/3
f 18/58/4 24/59/4 23/60/4
f 22/61/5 24/62/5 18/63/5
f 19/64/6 17/65/6 23/66/6
f 19/67/1 20/49/1 17/51/1
f 21/68/2 22/52/2 19/54/2
f 23/69/3 24/55/3 21/57/3
f 17/70/4 18/58/4 23/60/4
f 20/71/5 22/61/5 18/63/5
f 21/72/6 19/64/6 23/66/6
f 28/73/1 26/74/1 25/75/1
f 30/76/2 28/77/2 27/78/2
f 32/79/3 30/80/3 29/81/3
f 26/82/4 32/83/4 31/84/4
f 30/85/5 32/86/5 26/87/5
f 27/88/6 25/89/6 31/90/6
f 27/91/1 28/73/1 25/75/1
f 29/92/2 30/76/2 27/78/2
f 31/93/3 32/79/3 29/81/3
f 25/94/4 26/82/4 31/84/4
f 28/95/5 30/85/5 26/87/5
f 29/96/6 27/88/6 31/90/6
f 36/97/1 34/98/1 33/99/1
f 38/100/2 36/97/2 35/101/2
f 40/102/3 38/103/3 37/104/3
f 34/98/4 40/102/4 39/105/4
f 38/103/5 40/102/5 34/98/5
f 35/101/6 33/99/6 39/105/6
f 35/101/1 36/97/1 33/99/1
f 37/106/2 38/100/2 35/101/2
f 39/105/3 40/102/3 37/104/3
f 33/99/4 34/98/4 39/105/4
f 36/97/5 38/103/5 34/98/5
f 37/104/6 35/101/6 39/105/6
f 44/107/1 42/108/1 41/109/1
f 46/110/2 44/107/2 43/111/2
f 48/112/3 46/113/3 45/114/3
f 42/108/4 48/112/4 47/115/4
f 46/110/5 48/116/5 42/108/5
f 43/111/6 41/109/6 47/115/6
f 43/111/1 44/107/1 41/109/1
f 45/117/2 46/110/2 43/111/2
f 47/115/3 48/112/3 45/114/3
f 41/109/4 42/108/4 47/115/4
f 44/107/5 46/110/5 42/108/5
f 45/114/6 43/111/6 47/115/6
f 52/118/1 50/119/1 49/120/1
f 54/121/2 52/118/2 51/122/2
f 56/123/3 54/124/3 53/125/3
f 50/119/4 56/123/4 55/126/4
f 54/124/5 56/123/5 50/119/5
f 51/122/6 49/120/6 55/126/6
f 51/122/1 52/118/1 49/120/1
f 53/127/2 54/121/2 51/122/2
f 55/126/3 56/123/3 53/125/3
f 49/120/4 50/119/4 55/126/4
f 52/118/5 54/124/5 50/119/5
f 53/125/6 51/122/6 55/126/6
f 60/128/1 58/129/1 57/130/1
f 62/131/2 60/128/2 59/132/2
f 64/133/3 62/134/3 61/135/3
f 58/129/4 64/133/4 63/136/4
f 62/134/5 64/133/5 58/129/5
f 59/132/6 57/130/6 63/137/6
f 59/132/1 60/128/1 57/130/1
f 61/138/2 62/131/2 59/132/2
f 63/136/3 64/133/3 61/135/3
f 57/130/4 58/129/4 63/136/4
f 60/128/5 62/134/5 58/129/5
f 61/138/6 59/132/6 63/137/6
