# Blender v2.82 (sub 7) OBJ File: 'tile.blend'
# www.blender.org
o Circle
v 0.000000 0.000000 -1.000000
v -0.866025 0.000000 -0.500000
v -0.866025 0.000000 0.500000
v 0.000000 0.000000 1.000000
v 0.866025 0.000000 0.500000
v 0.866025 0.000000 -0.500000
v -0.000000 0.035042 -0.999473
v -0.865569 0.035042 -0.499736
v -0.865569 0.035042 0.499736
v 0.000000 0.035042 0.999473
v 0.865569 0.035042 0.499736
v 0.865569 0.035042 -0.499736
v -0.000000 0.056261 -0.994697
v -0.861433 0.056261 -0.497349
v -0.861433 0.056261 0.497349
v 0.000000 0.056261 0.994697
v 0.861433 0.056261 0.497349
v 0.861433 0.056261 -0.497349
v -0.000000 0.069443 -0.987189
v -0.854931 0.069443 -0.493594
v -0.854931 0.069443 0.493594
v 0.000000 0.069443 0.987189
v 0.854931 0.069443 0.493594
v 0.854931 0.069443 -0.493594
vt 0.004893 0.499928
vt 0.252503 0.928800
vt 0.747722 0.928800
vt 0.995331 0.499928
vt 0.747722 0.071056
vt 0.252503 0.071056
vt 0.005155 0.499928
vt 0.252633 0.071282
vt 0.253816 0.073330
vt 0.007519 0.499928
vt 0.252633 0.928574
vt 0.747591 0.928574
vt 0.995070 0.499928
vt 0.747591 0.071282
vt 0.253816 0.926526
vt 0.011238 0.499928
vt 0.255675 0.923306
vt 0.746408 0.926526
vt 0.992705 0.499928
vt 0.746409 0.073330
vt 0.255675 0.076551
vt 0.744549 0.076551
vt 0.988986 0.499928
vt 0.744549 0.923306
vn 0.0000 -1.0000 0.0000
vn -0.8603 0.1143 -0.4967
vn -0.8603 0.1143 0.4967
vn -0.8125 0.3462 0.4691
vn -0.8124 0.3462 -0.4691
vn 0.6900 -0.6043 -0.3984
vn 0.0000 -0.6043 -0.7967
vn 0.0000 0.1143 -0.9934
vn 0.8603 0.1143 -0.4967
vn 0.0000 -0.6043 0.7967
vn 0.6900 -0.6043 0.3984
vn 0.8603 0.1143 0.4967
vn 0.0000 0.1143 0.9934
vn -0.6900 -0.6043 -0.3984
vn -0.6900 -0.6043 0.3984
vn 0.0000 0.3462 -0.9381
vn -0.5254 0.7949 -0.3034
vn 0.0000 0.7949 -0.6067
vn 0.8124 0.3462 -0.4691
vn 0.8124 0.3462 0.4691
vn 0.0000 0.3462 0.9381
vn -0.5254 0.7949 0.3034
vn 0.0000 0.7949 0.6067
vn 0.5254 0.7949 0.3034
vn 0.5254 0.7949 -0.3034
s off
f 2/1/1 1/2/1 6/3/1 5/4/1 4/5/1 3/6/1
s 1
f 8/7/2 9/8/3 15/9/4 14/10/5
f 6/3/6 1/2/7 7/11/8 12/12/9
f 4/5/10 5/4/11 11/13/12 10/14/13
f 2/1/14 3/6/15 9/8/3 8/7/2
f 5/4/11 6/3/6 12/12/9 11/13/12
f 3/6/15 4/5/10 10/14/13 9/8/3
f 1/2/7 2/1/14 8/7/2 7/11/8
f 13/15/16 14/10/5 20/16/17 19/17/18
f 11/13/12 12/12/9 18/18/19 17/19/20
f 9/8/3 10/14/13 16/20/21 15/9/4
f 7/11/8 8/7/2 14/10/5 13/15/16
f 12/12/9 7/11/8 13/15/16 18/18/19
f 10/14/13 11/13/12 17/19/20 16/20/21
f 20/16/17 21/21/22 22/22/23 23/23/24 24/24/25 19/17/18
f 18/18/19 13/15/16 19/17/18 24/24/25
f 16/20/21 17/19/20 23/23/24 22/22/23
f 14/10/5 15/9/4 21/21/22 20/16/17
f 17/19/20 18/18/19 24/24/25 23/23/24
f 15/9/4 16/20/21 22/22/23 21/21/22
