# Blender v2.82 (sub 7) OBJ File: 'tile.blend'
# www.blender.org
o Circle
v 0.500000 0.000000 -0.866025
v -0.500000 0.000000 -0.866025
v -1.000000 0.000000 0.000000
v -0.500000 0.000000 0.866025
v 0.500000 0.000000 0.866025
v 1.000000 0.000000 0.000000
v 0.499736 0.035042 -0.865569
v -0.499736 0.035042 -0.865569
v -0.999473 0.035042 0.000000
v -0.499736 0.035042 0.865569
v 0.499736 0.035042 0.865569
v 0.999473 0.035042 0.000000
v 0.497349 0.056261 -0.861433
v -0.497349 0.056261 -0.861433
v -0.994697 0.056261 0.000000
v -0.497349 0.056261 0.861433
v 0.497349 0.056261 0.861433
v 0.994697 0.056261 0.000000
v 0.493594 0.069443 -0.854931
v -0.493594 0.069443 -0.854931
v -0.987189 0.069443 0.000000
v -0.493594 0.069443 0.854931
v 0.493594 0.069443 0.854930
v 0.987189 0.069443 0.000000
vt 0.995331 0.499928
vt 0.747722 0.071056
vt 0.252503 0.071056
vt 0.004893 0.499928
vt 0.252503 0.928800
vt 0.747722 0.928800
vt 0.252633 0.071282
vt 0.007519 0.499928
vt 0.005155 0.499928
vt 0.747591 0.928574
vt 0.995070 0.499928
vt 0.747591 0.071282
vt 0.252633 0.928574
vt 0.255675 0.923306
vt 0.253816 0.926526
vt 0.992705 0.499928
vt 0.253816 0.073330
vt 0.746408 0.926526
vt 0.746409 0.073330
vt 0.744549 0.923306
vt 0.255675 0.076551
vt 0.744549 0.076551
vt 0.011238 0.499928
vt 0.988986 0.499928
vn 0.0000 -1.0000 0.0000
vn -0.9934 0.1143 0.0000
vn -0.4691 0.3462 -0.8124
vn -0.4967 0.1143 -0.8603
vn 0.3984 -0.6043 -0.6900
vn 0.9934 0.1143 0.0000
vn 0.7967 -0.6043 0.0000
vn -0.3984 -0.6043 0.6900
vn 0.4967 0.1143 0.8603
vn -0.4967 0.1143 0.8603
vn -0.7967 -0.6043 0.0000
vn -0.3984 -0.6043 -0.6900
vn 0.3984 -0.6043 0.6900
vn 0.4967 0.1143 -0.8603
vn 0.3034 0.7949 -0.5254
vn 0.4691 0.3462 -0.8125
vn 0.4691 0.3462 0.8124
vn -0.9381 0.3462 0.0000
vn 0.9381 0.3462 0.0000
vn -0.4691 0.3462 0.8124
vn 0.6067 0.7949 0.0000
vn -0.6067 0.7949 0.0000
vn -0.3034 0.7949 0.5254
vn -0.3034 0.7949 -0.5254
vn 0.3034 0.7949 0.5254
s off
f 5/1/1 4/2/1 3/3/1
f 3/3/1 2/4/1 1/5/1
f 1/5/1 6/6/1 3/3/1
f 6/6/1 5/1/1 3/3/1
s 1
f 9/7/2 14/8/3 8/9/4
f 1/5/5 12/10/6 6/6/7
f 4/2/8 11/11/9 10/12/10
f 3/3/11 8/9/4 2/4/12
f 6/6/7 11/11/9 5/1/13
f 3/3/11 10/12/10 9/7/2
f 2/4/12 7/13/14 1/5/5
f 14/8/3 19/14/15 13/15/16
f 12/10/6 17/16/17 11/11/9
f 10/12/10 15/17/18 9/7/2
f 8/9/4 13/15/16 7/13/14
f 7/13/14 18/18/19 12/10/6
f 11/11/9 16/19/20 10/12/10
f 24/20/21 19/14/15 21/21/22
f 13/15/16 24/20/21 18/18/19
f 17/16/17 22/22/23 16/19/20
f 15/17/18 20/23/24 14/8/3
f 18/18/19 23/24/25 17/16/17
f 16/19/20 21/21/22 15/17/18
f 9/7/2 15/17/18 14/8/3
f 1/5/5 7/13/14 12/10/6
f 4/2/8 5/1/13 11/11/9
f 3/3/11 9/7/2 8/9/4
f 6/6/7 12/10/6 11/11/9
f 3/3/11 4/2/8 10/12/10
f 2/4/12 8/9/4 7/13/14
f 14/8/3 20/23/24 19/14/15
f 12/10/6 18/18/19 17/16/17
f 10/12/10 16/19/20 15/17/18
f 8/9/4 14/8/3 13/15/16
f 7/13/14 13/15/16 18/18/19
f 11/11/9 17/16/17 16/19/20
f 19/14/15 20/23/24 21/21/22
f 21/21/22 22/22/23 23/24/25
f 23/24/25 24/20/21 21/21/22
f 13/15/16 19/14/15 24/20/21
f 17/16/17 23/24/25 22/22/23
f 15/17/18 21/21/22 20/23/24
f 18/18/19 24/20/21 23/24/25
f 16/19/20 22/22/23 21/21/22
