# Blender v2.82 (sub 7) OBJ File: 'token.blend'
# www.blender.org
o Cylinder
v 0.000000 -0.088366 -1.000000
v 0.000000 0.088366 -1.000000
v 0.195090 -0.088366 -0.980785
v 0.195090 0.088366 -0.980785
v 0.382683 -0.088366 -0.923880
v 0.382683 0.088366 -0.923880
v 0.555570 -0.088366 -0.831470
v 0.555570 0.088366 -0.831470
v 0.707107 -0.088366 -0.707107
v 0.707107 0.088366 -0.707107
v 0.831470 -0.088366 -0.555570
v 0.831470 0.088366 -0.555570
v 0.923880 -0.088366 -0.382683
v 0.923880 0.088366 -0.382683
v 0.980785 -0.088366 -0.195090
v 0.980785 0.088366 -0.195090
v 1.000000 -0.088366 -0.000000
v 1.000000 0.088366 -0.000000
v 0.980785 -0.088366 0.195090
v 0.980785 0.088366 0.195090
v 0.923880 -0.088366 0.382683
v 0.923880 0.088366 0.382683
v 0.831470 -0.088366 0.555570
v 0.831470 0.088366 0.555570
v 0.707107 -0.088366 0.707107
v 0.707107 0.088366 0.707107
v 0.555570 -0.088366 0.831470
v 0.555570 0.088366 0.831470
v 0.382683 -0.088366 0.923880
v 0.382683 0.088366 0.923880
v 0.195090 -0.088366 0.980785
v 0.195090 0.088366 0.980785
v -0.000000 -0.088366 1.000000
v -0.000000 0.088366 1.000000
v -0.195091 -0.088366 0.980785
v -0.195091 0.088366 0.980785
v -0.382684 -0.088366 0.923879
v -0.382684 0.088366 0.923879
v -0.555571 -0.088366 0.831469
v -0.555571 0.088366 0.831469
v -0.707107 -0.088366 0.707106
v -0.707107 0.088366 0.707106
v -0.831470 -0.088366 0.555570
v -0.831470 0.088366 0.555570
v -0.923880 -0.088366 0.382683
v -0.923880 0.088366 0.382683
v -0.980785 -0.088366 0.195089
v -0.980785 0.088366 0.195089
v -1.000000 -0.088366 -0.000001
v -1.000000 0.088366 -0.000001
v -0.980785 -0.088366 -0.195091
v -0.980785 0.088366 -0.195091
v -0.923879 -0.088366 -0.382684
v -0.923879 0.088366 -0.382684
v -0.831469 -0.088366 -0.555571
v -0.831469 0.088366 -0.555571
v -0.707106 -0.088366 -0.707108
v -0.707106 0.088366 -0.707108
v -0.555569 -0.088366 -0.831470
v -0.555569 0.088366 -0.831470
v -0.382682 -0.088366 -0.923880
v -0.382682 0.088366 -0.923880
v -0.195089 -0.088366 -0.980786
v -0.195089 0.088366 -0.980786
v 0.000000 -0.088366 -1.000000
v 0.195090 -0.088366 -0.980785
v 0.195090 0.088366 -0.980785
v 0.000000 0.088366 -1.000000
v 0.382683 -0.088366 -0.923880
v 0.382683 0.088366 -0.923880
v 0.555570 -0.088366 -0.831470
v 0.555570 0.088366 -0.831470
v 0.707107 -0.088366 -0.707107
v 0.707107 0.088366 -0.707107
v 0.831470 -0.088366 -0.555570
v 0.831470 0.088366 -0.555570
v 0.923880 -0.088366 -0.382683
v 0.923880 0.088366 -0.382683
v 0.980785 -0.088366 -0.195090
v 0.980785 0.088366 -0.195090
v 1.000000 -0.088366 -0.000000
v 1.000000 0.088366 -0.000000
v 0.980785 -0.088366 0.195090
v 0.980785 0.088366 0.195090
v 0.923880 -0.088366 0.382683
v 0.923880 0.088366 0.382683
v 0.831470 -0.088366 0.555570
v 0.831470 0.088366 0.555570
v 0.707107 -0.088366 0.707107
v 0.707107 0.088366 0.707107
v 0.555570 -0.088366 0.831470
v 0.555570 0.088366 0.831470
v 0.382683 -0.088366 0.923880
v 0.382683 0.088366 0.923880
v 0.195090 -0.088366 0.980785
v 0.195090 0.088366 0.980785
v -0.000000 -0.088366 1.000000
v -0.000000 0.088366 1.000000
v -0.195091 -0.088366 0.980785
v -0.195091 0.088366 0.980785
v -0.382684 -0.088366 0.923879
v -0.382684 0.088366 0.923879
v -0.555571 -0.088366 0.831469
v -0.555571 0.088366 0.831469
v -0.707107 -0.088366 0.707106
v -0.707107 0.088366 0.707106
v -0.831470 -0.088366 0.555570
v -0.831470 0.088366 0.555570
v -0.923880 -0.088366 0.382683
v -0.923880 0.088366 0.382683
v -0.980785 -0.088366 0.195089
v -0.980785 0.088366 0.195089
v -1.000000 -0.088366 -0.000001
v -1.000000 0.088366 -0.000001
v -0.980785 -0.088366 -0.195091
v -0.980785 0.088366 -0.195091
v -0.923879 -0.088366 -0.382684
v -0.923879 0.088366 -0.382684
v -0.831469 -0.088366 -0.555571
v -0.831469 0.088366 -0.555571
v -0.707106 -0.088366 -0.707108
v -0.707106 0.088366 -0.707108
v -0.555569 -0.088366 -0.831470
v -0.555569 0.088366 -0.831470
v -0.382682 -0.088366 -0.923880
v -0.382682 0.088366 -0.923880
v -0.195089 -0.088366 -0.980786
v -0.195089 0.088366 -0.980786
vt 0.500000 0.827191
vt 0.564437 0.820844
vt 0.500000 0.827191
vt 0.564437 0.820844
vt 0.626397 0.802049
vt 0.626397 0.802049
vt 0.683500 0.771527
vt 0.683500 0.771527
vt 0.733551 0.730451
vt 0.733551 0.730451
vt 0.774627 0.680399
vt 0.774627 0.680399
vt 0.805149 0.623296
vt 0.805149 0.623296
vt 0.823945 0.561336
vt 0.823945 0.561336
vt 0.830291 0.496900
vt 0.830291 0.496900
vt 0.823945 0.432463
vt 0.823945 0.432463
vt 0.805149 0.370503
vt 0.805149 0.370503
vt 0.774627 0.313400
vt 0.774627 0.313400
vt 0.733551 0.263349
vt 0.733551 0.263349
vt 0.683500 0.222273
vt 0.683500 0.222273
vt 0.626397 0.191750
vt 0.626397 0.191750
vt 0.564436 0.172955
vt 0.564436 0.172955
vt 0.500000 0.166609
vt 0.500000 0.166609
vt 0.435563 0.172955
vt 0.435563 0.172955
vt 0.373603 0.191751
vt 0.373603 0.191751
vt 0.316500 0.222273
vt 0.316500 0.222273
vt 0.266449 0.263349
vt 0.266449 0.263349
vt 0.225373 0.313400
vt 0.225373 0.313400
vt 0.194851 0.370503
vt 0.194851 0.370503
vt 0.176055 0.432463
vt 0.176055 0.432463
vt 0.169709 0.496900
vt 0.169709 0.496900
vt 0.176055 0.561336
vt 0.176055 0.561336
vt 0.194851 0.623297
vt 0.194851 0.623297
vt 0.225373 0.680400
vt 0.225373 0.680400
vt 0.266449 0.730451
vt 0.266449 0.730451
vt 0.316501 0.771527
vt 0.316501 0.771527
vt 0.373603 0.802049
vt 0.194851 0.623297
vt 0.373603 0.191751
vt 0.805149 0.370503
vt 0.373603 0.802049
vt 0.435564 0.820844
vt 0.435564 0.820844
vt 0.823945 0.561336
vt 0.564436 0.172955
vt 0.176055 0.432463
vt 0.626397 0.802049
vt 0.564437 0.820844
vt 0.500000 0.827191
vt 0.435564 0.820844
vt 0.373603 0.802049
vt 0.316501 0.771527
vt 0.266449 0.730451
vt 0.225373 0.680400
vt 0.176055 0.561336
vt 0.169709 0.496900
vt 0.176055 0.432463
vt 0.194851 0.370503
vt 0.225373 0.313400
vt 0.266449 0.263349
vt 0.316500 0.222273
vt 0.435563 0.172955
vt 0.500000 0.166609
vt 0.564436 0.172955
vt 0.626397 0.191750
vt 0.683500 0.222273
vt 0.733551 0.263349
vt 0.774627 0.313400
vt 0.823945 0.432463
vt 0.830291 0.496900
vt 0.823945 0.561336
vt 0.805149 0.623296
vt 0.774627 0.680399
vt 0.733551 0.730451
vt 0.683500 0.771527
vt 0.435564 0.820844
vt 0.500000 0.827191
vt 0.564437 0.820844
vt 0.626397 0.802049
vt 0.683500 0.771527
vt 0.733551 0.730451
vt 0.774627 0.680399
vt 0.805149 0.623296
vt 0.830291 0.496900
vt 0.823945 0.432463
vt 0.805149 0.370503
vt 0.774627 0.313400
vt 0.733551 0.263349
vt 0.683500 0.222273
vt 0.626397 0.191750
vt 0.500000 0.166609
vt 0.435563 0.172955
vt 0.373603 0.191751
vt 0.316500 0.222273
vt 0.266449 0.263349
vt 0.225373 0.313400
vt 0.194851 0.370503
vt 0.169709 0.496900
vt 0.176055 0.561336
vt 0.194851 0.623297
vt 0.225373 0.680400
vt 0.266449 0.730451
vt 0.316501 0.771527
vt 0.373603 0.802049
vn 0.0000 0.0000 -1.0000
vn 0.1951 0.0000 -0.9808
vn 0.3827 0.0000 -0.9239
vn 0.5556 0.0000 -0.8314
vn 0.7071 0.0000 -0.7071
vn 0.8314 0.0000 -0.5556
vn 0.9239 0.0000 -0.3827
vn 0.9808 0.0000 -0.1951
vn 1.0000 0.0000 0.0000
vn 0.9808 0.0000 0.1951
vn 0.9239 0.0000 0.3827
vn 0.8314 0.0000 0.5556
vn 0.7071 0.0000 0.7071
vn 0.5556 0.0000 0.8314
vn 0.3827 0.0000 0.9239
vn 0.1951 0.0000 0.9808
vn 0.0000 0.0000 1.0000
vn -0.1951 0.0000 0.9808
vn -0.3827 0.0000 0.9239
vn -0.5556 0.0000 0.8314
vn -0.7071 0.0000 0.7071
vn -0.8314 0.0000 0.5556
vn -0.9239 0.0000 0.3827
vn -0.9808 0.0000 0.1951
vn -1.0000 0.0000 0.0000
vn -0.9808 0.0000 -0.1951
vn -0.9239 0.0000 -0.3827
vn -0.8314 0.0000 -0.5556
vn -0.7071 0.0000 -0.7071
vn -0.5556 0.0000 -0.8314
vn -0.3827 0.0000 -0.9239
vn 0.0000 1.0000 0.0000
vn -0.1951 0.0000 -0.9808
vn 0.0000 -1.0000 0.0000
s 1
f 68/1/1 66/2/2 65/3/1
f 67/4/2 69/5/3 66/2/2
f 70/6/3 71/7/4 69/5/3
f 72/8/4 73/9/5 71/7/4
f 74/10/5 75/11/6 73/9/5
f 76/12/6 77/13/7 75/11/6
f 78/14/7 79/15/8 77/13/7
f 80/16/8 81/17/9 79/15/8
f 82/18/9 83/19/10 81/17/9
f 84/20/10 85/21/11 83/19/10
f 86/22/11 87/23/12 85/21/11
f 88/24/12 89/25/13 87/23/12
f 90/26/13 91/27/14 89/25/13
f 92/28/14 93/29/15 91/27/14
f 94/30/15 95/31/16 93/29/15
f 96/32/16 97/33/17 95/31/16
f 98/34/17 99/35/18 97/33/17
f 100/36/18 101/37/19 99/35/18
f 102/38/19 103/39/20 101/37/19
f 104/40/20 105/41/21 103/39/20
f 106/42/21 107/43/22 105/41/21
f 108/44/22 109/45/23 107/43/22
f 110/46/23 111/47/24 109/45/23
f 112/48/24 113/49/25 111/47/24
f 114/50/25 115/51/26 113/49/25
f 116/52/26 117/53/27 115/51/26
f 118/54/27 119/55/28 117/53/27
f 120/56/28 121/57/29 119/55/28
f 122/58/29 123/59/30 121/57/29
f 124/60/30 125/61/31 123/59/30
f 54/62/32 38/63/32 22/64/32
f 126/65/31 127/66/33 125/61/31
f 64/67/33 65/3/1 127/66/33
f 15/68/34 31/69/34 47/70/34
f 68/1/1 67/4/2 66/2/2
f 67/4/2 70/6/3 69/5/3
f 70/6/3 72/8/4 71/7/4
f 72/8/4 74/10/5 73/9/5
f 74/10/5 76/12/6 75/11/6
f 76/12/6 78/14/7 77/13/7
f 78/14/7 80/16/8 79/15/8
f 80/16/8 82/18/9 81/17/9
f 82/18/9 84/20/10 83/19/10
f 84/20/10 86/22/11 85/21/11
f 86/22/11 88/24/12 87/23/12
f 88/24/12 90/26/13 89/25/13
f 90/26/13 92/28/14 91/27/14
f 92/28/14 94/30/15 93/29/15
f 94/30/15 96/32/16 95/31/16
f 96/32/16 98/34/17 97/33/17
f 98/34/17 100/36/18 99/35/18
f 100/36/18 102/38/19 101/37/19
f 102/38/19 104/40/20 103/39/20
f 104/40/20 106/42/21 105/41/21
f 106/42/21 108/44/22 107/43/22
f 108/44/22 110/46/23 109/45/23
f 110/46/23 112/48/24 111/47/24
f 112/48/24 114/50/25 113/49/25
f 114/50/25 116/52/26 115/51/26
f 116/52/26 118/54/27 117/53/27
f 118/54/27 120/56/28 119/55/28
f 120/56/28 122/58/29 121/57/29
f 122/58/29 124/60/30 123/59/30
f 124/60/30 126/65/31 125/61/31
f 6/71/32 4/72/32 2/73/32
f 2/73/32 128/74/32 6/71/32
f 128/74/32 62/75/32 6/71/32
f 62/75/32 60/76/32 58/77/32
f 58/77/32 56/78/32 54/62/32
f 54/62/32 52/79/32 50/80/32
f 50/80/32 48/81/32 54/62/32
f 48/81/32 46/82/32 54/62/32
f 46/82/32 44/83/32 38/63/32
f 44/83/32 42/84/32 38/63/32
f 42/84/32 40/85/32 38/63/32
f 38/63/32 36/86/32 34/87/32
f 34/87/32 32/88/32 30/89/32
f 30/89/32 28/90/32 26/91/32
f 26/91/32 24/92/32 22/64/32
f 22/64/32 20/93/32 18/94/32
f 18/94/32 16/95/32 22/64/32
f 16/95/32 14/96/32 22/64/32
f 14/96/32 12/97/32 10/98/32
f 10/98/32 8/99/32 6/71/32
f 62/75/32 58/77/32 6/71/32
f 58/77/32 54/62/32 6/71/32
f 38/63/32 34/87/32 22/64/32
f 34/87/32 30/89/32 22/64/32
f 30/89/32 26/91/32 22/64/32
f 14/96/32 10/98/32 22/64/32
f 10/98/32 6/71/32 22/64/32
f 54/62/32 46/82/32 38/63/32
f 6/71/32 54/62/32 22/64/32
f 126/65/31 64/67/33 127/66/33
f 64/67/33 68/1/1 65/3/1
f 63/100/34 1/101/34 3/102/34
f 3/102/34 5/103/34 7/104/34
f 7/104/34 9/105/34 11/106/34
f 11/106/34 13/107/34 7/104/34
f 13/107/34 15/68/34 7/104/34
f 15/68/34 17/108/34 19/109/34
f 19/109/34 21/110/34 15/68/34
f 21/110/34 23/111/34 15/68/34
f 23/111/34 25/112/34 31/69/34
f 25/112/34 27/113/34 31/69/34
f 27/113/34 29/114/34 31/69/34
f 31/69/34 33/115/34 35/116/34
f 35/116/34 37/117/34 39/118/34
f 39/118/34 41/119/34 43/120/34
f 43/120/34 45/121/34 47/70/34
f 47/70/34 49/122/34 51/123/34
f 51/123/34 53/124/34 55/125/34
f 55/125/34 57/126/34 63/100/34
f 57/126/34 59/127/34 63/100/34
f 59/127/34 61/128/34 63/100/34
f 63/100/34 3/102/34 7/104/34
f 31/69/34 35/116/34 47/70/34
f 35/116/34 39/118/34 47/70/34
f 39/118/34 43/120/34 47/70/34
f 47/70/34 51/123/34 63/100/34
f 51/123/34 55/125/34 63/100/34
f 63/100/34 7/104/34 15/68/34
f 15/68/34 23/111/34 31/69/34
f 63/100/34 15/68/34 47/70/34
